<svg width="24" height="24" viewBox="0 0 24 24" fill="none" xmlns="http://www.w3.org/2000/svg">
<path d="M20.6763 8.82107V7.76186C20.6788 6.70582 20.2603 5.69234 19.5136 4.94561C18.7669 4.19888 17.7534 3.78046 16.6974 3.78291H15.9329" stroke="#200E32" stroke-width="1.5" stroke-linecap="round" stroke-linejoin="round"/>
<path d="M4.09737 8.82106V7.76185C4.09492 6.70741 4.51208 5.69532 5.25682 4.94886C6.00155 4.2024 7.01267 3.7829 8.06711 3.7829H8.86842" stroke="#200E32" stroke-width="1.5" stroke-linecap="round" stroke-linejoin="round"/>
<path d="M20.6763 12.8645V16.3829C20.6788 17.4389 20.2603 18.4524 19.5136 19.1991C18.7669 19.9459 17.7534 20.3643 16.6974 20.3618H15.9329" stroke="#200E32" stroke-width="1.5" stroke-linecap="round" stroke-linejoin="round"/>
<path d="M4.09737 12.8645V16.3829C4.09492 17.4389 4.51334 18.4524 5.26007 19.1991C6.0068 19.9459 7.02028 20.3643 8.07632 20.3618H8.86842" stroke="#200E32" stroke-width="1.5" stroke-linecap="round" stroke-linejoin="round"/>
<path d="M22.4539 12.8645H2.28289" stroke="#200E32" stroke-width="1.5" stroke-linecap="round" stroke-linejoin="round"/>
</svg>
