<svg width="24" height="24" viewBox="0 0 24 24" fill="none" xmlns="http://www.w3.org/2000/svg">
<path fill-rule="evenodd" clip-rule="evenodd" d="M12.7135 3.44133L15.0302 8.09669C15.1438 8.33067 15.3673 8.49424 15.6275 8.53369L20.8128 9.28282C21.0232 9.31151 21.2133 9.42187 21.3407 9.58934C21.4682 9.75682 21.5225 9.96754 21.4915 10.1747C21.4654 10.3449 21.3827 10.5018 21.2562 10.6206L17.5007 14.2592C17.3109 14.4386 17.2258 14.7002 17.2745 14.9549L18.1794 20.0829C18.2449 20.5054 17.9552 20.9019 17.5278 20.9747C17.3516 21.0019 17.1712 20.9739 17.012 20.8945L12.3878 18.4776C12.1568 18.3522 11.8767 18.3522 11.6457 18.4776L6.99429 20.9123C6.60404 21.1097 6.12531 20.963 5.91741 20.5823C5.83635 20.4289 5.80778 20.2537 5.83596 20.0829L6.74091 14.9549C6.78468 14.7005 6.70031 14.4411 6.51467 14.2592L2.73201 10.6206C2.42266 10.3115 2.42266 9.81485 2.73201 9.50578C2.85826 9.39058 3.01522 9.31324 3.18448 9.28282L8.36981 8.53369C8.62871 8.49136 8.85105 8.32868 8.96707 8.09669L11.2837 3.44133C11.3753 3.25257 11.5403 3.10824 11.7413 3.04107C11.9424 2.97391 12.1624 2.9896 12.3516 3.0846C12.5076 3.16259 12.6344 3.28754 12.7135 3.44133Z" stroke="#200E32" stroke-width="1.5" stroke-linecap="round" stroke-linejoin="round"/>
</svg>
