<svg width="24" height="24" viewBox="0 0 24 24" fill="none" xmlns="http://www.w3.org/2000/svg">
<g id="Iconly/Bold/Bag">
<g id="Bag">
<path id="Bag_2" fill-rule="evenodd" clip-rule="evenodd" d="M20.1429 10.5125L20.9129 16.5025C21.4839 20.4125 19.2129 22.0025 16.1629 22.0025H7.8729C4.8139 22.0025 2.4729 20.9025 3.1029 16.5025L3.8829 10.5125C4.0029 9.6225 4.4329 8.7925 5.1029 8.1825C5.6139 7.7335 6.2729 7.4925 6.9529 7.4925V7.2625C6.8729 5.4125 7.8239 3.6625 9.4229 2.7125C11.0229 1.7625 13.0229 1.7625 14.6229 2.7125C16.2229 3.6625 17.1629 5.4125 17.0929 7.2625V7.4925C18.3529 7.4925 19.6829 8.3725 20.1429 10.5125ZM8.4729 7.2625C8.4729 5.3225 10.0529 3.7425 12.0029 3.7425C13.9629 3.7425 15.5429 5.3225 15.5429 7.2625V7.4835H8.4729V7.2625ZM8.2029 11.5925C8.2029 12.0725 8.6029 12.4725 9.0929 12.4725C9.5829 12.4725 9.9729 12.0725 9.9729 11.5925C9.9729 11.1025 9.5829 10.7125 9.0929 10.7125C8.6029 10.7125 8.2029 11.1025 8.2029 11.5925ZM14.8929 12.4725C15.1229 12.4725 15.3529 12.3825 15.5129 12.2125C15.6829 12.0525 15.7729 11.8225 15.7729 11.5925C15.7729 11.1025 15.3729 10.7125 14.8929 10.7125C14.4039 10.7125 14.0029 11.1025 14.0029 11.5925C14.0029 12.0725 14.4039 12.4725 14.8929 12.4725Z" fill="#200E32"/>
</g>
</g>
</svg>
