<svg width="24" height="24" viewBox="0 0 24 24" fill="none" xmlns="http://www.w3.org/2000/svg">
<g id="Iconly/Bold/Bookmark">
<g id="Bookmark">
<path id="Bookmark_2" fill-rule="evenodd" clip-rule="evenodd" d="M8.89989 2.00009H15.0699C17.7799 2.00009 19.9699 3.07009 19.9999 5.79009V20.9701C19.9999 21.1401 19.9599 21.3101 19.8799 21.4601C19.7499 21.7001 19.5299 21.8801 19.2599 21.9601C18.9999 22.0401 18.7099 22.0001 18.4699 21.8601L11.9899 18.6201L5.49989 21.8601C5.35089 21.9391 5.17989 21.9901 5.00989 21.9901C4.44989 21.9901 3.99989 21.5301 3.99989 20.9701V5.79009C3.99989 3.07009 6.19989 2.00009 8.89989 2.00009ZM8.21989 9.62009H15.7499C16.1799 9.62009 16.5299 9.26909 16.5299 8.83009C16.5299 8.39009 16.1799 8.04009 15.7499 8.04009H8.21989C7.78989 8.04009 7.43989 8.39009 7.43989 8.83009C7.43989 9.26909 7.78989 9.62009 8.21989 9.62009Z" fill="#200E32"/>
</g>
</g>
</svg>
