<svg width="24" height="24" viewBox="0 0 24 24" fill="none" xmlns="http://www.w3.org/2000/svg">
<g id="Iconly/Bold/Calendar">
<g id="Calendar">
<path id="Combined Shape" fill-rule="evenodd" clip-rule="evenodd" d="M16.5 2.71694V3.71741C16.9661 3.76335 17.427 3.85641 17.8767 3.99575V3.98863C17.9026 4.00042 17.9225 4.00743 17.9565 4.01946L17.9624 4.02156C17.9782 4.02714 17.993 4.03273 18.0075 4.03825C18.0278 4.04592 18.0477 4.05347 18.0697 4.06072C18.1645 4.09184 18.2532 4.12851 18.3445 4.16625L18.3605 4.17286C18.4026 4.18765 18.4422 4.206 18.478 4.22253L18.5114 4.23783C18.5869 4.27076 18.6641 4.30992 18.7259 4.34285C18.767 4.3642 18.8071 4.38704 18.8447 4.40847L18.8447 4.40851L18.8448 4.40852L18.8448 4.40855C18.8652 4.42014 18.8848 4.43133 18.9034 4.44164C18.9342 4.45861 18.9609 4.47677 18.9866 4.49423L18.9866 4.49425C19.0054 4.50699 19.0236 4.51937 19.0424 4.53064C19.3015 4.69795 19.5434 4.89375 19.7621 5.11358L19.7698 5.12693C19.8504 5.20792 19.9268 5.29336 19.998 5.38325L20.004 5.39571C20.7048 6.36491 21.0548 7.55928 20.993 8.76878V9.15593H21V16.9102C21 20.2916 19.1116 22 15.3691 22H8.62232C4.88841 22 3 20.2916 3 16.9102V9.15593L3.00677 9.15593V8.77234C2.94586 7.56284 3.29756 6.36936 3.99924 5.40105L4.0121 5.38859C4.05575 5.33492 4.10176 5.28266 4.14886 5.22916C4.17675 5.19748 4.20502 5.16537 4.23342 5.13227L4.24628 5.11892C4.46245 4.89731 4.70177 4.7024 4.95997 4.53598C4.97886 4.52468 4.99691 4.51302 5.01475 4.50149C5.04471 4.48213 5.07407 4.46315 5.10579 4.44698L5.27735 4.34819C5.31209 4.33172 5.34832 4.31371 5.38456 4.29569L5.38458 4.29568L5.38459 4.29567C5.42083 4.27765 5.45707 4.25963 5.4918 4.24317C5.5171 4.23338 5.5424 4.22203 5.5677 4.21069L5.56771 4.21068L5.56772 4.21068L5.56772 4.21068C5.59302 4.19934 5.61833 4.18799 5.64363 4.1782C5.73885 4.13815 5.84007 4.09899 5.94129 4.06606C5.9756 4.04915 6.01163 4.0358 6.04851 4.0269C6.06361 4.01932 6.07898 4.01404 6.09526 4.00844L6.09527 4.00844C6.10766 4.00418 6.12058 3.99974 6.13429 3.99397V3.99931C6.57985 3.86097 7.0374 3.76743 7.5 3.72188V2.72836C7.5 2.32956 7.82169 2.0071 8.21955 2.0071C8.61741 2.0071 8.94 2.32956 8.94 2.72836V5.87211C8.94 6.27091 8.61741 6.59427 8.21955 6.59427C7.82169 6.59427 7.5 6.27091 7.5 5.87211V5.1453C7.02767 5.19259 6.56388 5.31012 6.124 5.49628C4.92909 6.03383 4.39211 7.08313 4.39211 8.76878V9.15593L19.6085 9.15593V8.75899C19.6377 8.04522 19.4945 7.335 19.1908 6.69332C18.8991 6.14419 18.4325 5.71789 17.8689 5.48649C17.4325 5.29862 16.971 5.17981 16.5 5.13416V5.86848C16.5 6.26556 16.1778 6.58719 15.78 6.58719C15.3822 6.58719 15.06 6.26556 15.06 5.86848V5.08154H8.947V3.65132H15.06V2.72413C15.0564 2.32705 15.3768 2.00273 15.7746 2.00003C16.1724 1.99734 16.4973 2.31627 16.5 2.71335V2.71694ZM7.88412 14.3166C7.42918 14.3166 7.06009 13.9359 7.06009 13.4668C7.06009 12.9976 7.42918 12.6082 7.88412 12.6082H7.8927C8.33906 12.6082 8.70815 12.9888 8.70815 13.4579C8.71674 13.9271 8.34764 14.3166 7.88412 14.3166ZM12.0043 14.3166C11.5494 14.3166 11.1717 13.9359 11.1717 13.4668C11.1717 12.9976 11.5408 12.617 11.9957 12.6082H12.0043C12.4592 12.617 12.8283 12.9976 12.8283 13.4579C12.8283 13.9359 12.4592 14.3166 12.0043 14.3166ZM15.2918 13.4668C15.2918 13.9359 15.6609 14.3166 16.1159 14.3166C16.5708 14.3166 16.9399 13.9359 16.9399 13.4668C16.9399 12.9976 16.5708 12.617 16.1159 12.617C15.6524 12.617 15.2918 12.9976 15.2918 13.4668ZM15.2833 17.0961C15.2918 17.5652 15.6609 17.9458 16.1159 17.9458C16.5708 17.9458 16.9399 17.5652 16.9399 17.0961C16.9399 16.6269 16.5708 16.2463 16.1159 16.2463H16.1073C15.6524 16.2463 15.2833 16.6269 15.2833 17.0961ZM11.1717 17.0961C11.1717 17.5652 11.5494 17.9458 12.0043 17.9458C12.4592 17.9458 12.8283 17.5652 12.8283 17.0872C12.8197 16.6269 12.4592 16.2463 12.0043 16.2374H11.9957C11.5408 16.2463 11.1717 16.6269 11.1717 17.0961ZM7.06009 17.0961C7.06009 17.5652 7.42918 17.9458 7.88412 17.9458C8.33906 17.9458 8.70815 17.5564 8.70815 17.0872C8.70815 16.6181 8.33906 16.2374 7.88412 16.2374C7.4206 16.2374 7.0515 16.6269 7.06009 17.0961Z" fill="#200E32"/>
</g>
</g>
</svg>
