<svg width="24" height="24" viewBox="0 0 24 24" fill="none" xmlns="http://www.w3.org/2000/svg">
<g id="Iconly/Bold/Discovery">
<g id="Discovery">
<path id="Discovery_2" fill-rule="evenodd" clip-rule="evenodd" d="M6.4495 3.6781C10.4095 1.0381 15.6885 1.5591 19.0695 4.9181C20.9585 6.8091 22.0085 9.3681 21.9985 12.0381C21.9795 16.7981 18.5985 20.8881 13.9285 21.8091C9.2485 22.7291 4.5695 20.2181 2.7585 15.8091C0.9385 11.4081 2.4795 6.3281 6.4495 3.6781ZM14.2185 13.8581L15.7685 8.9181C15.8095 8.8091 15.8095 8.6881 15.7685 8.5781C15.7295 8.4381 15.6285 8.3181 15.4985 8.2481C15.3695 8.1881 15.2185 8.1681 15.0795 8.2181L10.1385 9.7781C9.9685 9.8281 9.8385 9.9681 9.7895 10.1381L8.2185 15.0781C8.1885 15.1781 8.1885 15.2881 8.2185 15.3881C8.2585 15.5281 8.3595 15.6481 8.4895 15.7181C8.6285 15.7981 8.7795 15.8091 8.9185 15.7681L13.8595 14.2081C14.0295 14.1581 14.1595 14.0281 14.2185 13.8581Z" fill="#200E32"/>
</g>
</g>
</svg>
