<svg width="24" height="24" viewBox="0 0 24 24" fill="none" xmlns="http://www.w3.org/2000/svg">
<g id="Iconly/Bold/Folder">
<g id="Folder">
<path id="Folder_2" fill-rule="evenodd" clip-rule="evenodd" d="M13.4499 4.88021H16.5199C20.2099 4.88021 22.0099 6.85021 21.9999 10.8902V15.7602C21.9999 19.6202 19.6199 22.0002 15.7499 22.0002H8.2399C4.3899 22.0002 1.9999 19.6202 1.9999 15.7502V8.24021C1.9999 4.10021 3.8399 2.00021 7.4699 2.00021H9.0499C9.9809 1.99021 10.8499 2.42021 11.4199 3.15021L12.2999 4.32021C12.5799 4.67021 12.9999 4.88021 13.4499 4.88021ZM7.3699 15.2902H16.6299C17.0399 15.2902 17.3699 14.9502 17.3699 14.5402C17.3699 14.1202 17.0399 13.7902 16.6299 13.7902H7.3699C6.9499 13.7902 6.6199 14.1202 6.6199 14.5402C6.6199 14.9502 6.9499 15.2902 7.3699 15.2902Z" fill="#200E32"/>
</g>
</g>
</svg>
