<svg width="24" height="24" viewBox="0 0 24 24" fill="none" xmlns="http://www.w3.org/2000/svg">
<g id="Iconly/Bold/Location">
<g id="Location">
<path id="Location_2" fill-rule="evenodd" clip-rule="evenodd" d="M12.0299 1.99999C14.2899 2.00999 16.4499 2.90999 18.0299 4.48999C19.6199 6.07999 20.5099 8.22999 20.4999 10.46V10.51C20.4399 13.54 18.7399 16.33 16.6199 18.51C15.4199 19.74 14.0899 20.83 12.6399 21.75C12.2499 22.08 11.6799 22.08 11.2899 21.75C9.1399 20.35 7.2399 18.59 5.6999 16.54C4.3499 14.76 3.5799 12.62 3.4999 10.39C3.5199 5.73999 7.3399 1.98999 12.0299 1.99999ZM12.0299 13.26C12.7399 13.26 13.4199 12.99 13.9199 12.5C14.4399 11.99 14.7309 11.311 14.7309 10.6C14.7309 9.11999 13.5199 7.92999 12.0299 7.92999C10.5399 7.92999 9.3399 9.11999 9.3399 10.6C9.3399 12.061 10.5199 13.24 11.9999 13.26H12.0299Z" fill="#200E32"/>
</g>
</g>
</svg>
