<svg width="24" height="24" viewBox="0 0 24 24" fill="none" xmlns="http://www.w3.org/2000/svg">
<g id="Iconly/Bold/Scan">
<g id="Scan">
<path id="Scan_2" fill-rule="evenodd" clip-rule="evenodd" d="M4.35568 8.75053C4.35052 9.14081 4.03126 9.45595 3.63588 9.46105H3.62628C3.2325 9.45587 2.91604 9.13927 2.91608 8.75053V7.73684C2.91595 5.13914 5.0353 3.02598 7.66678 3H8.44417C8.83955 3.0051 9.1588 3.32025 9.16397 3.71053C9.1588 4.10081 8.83955 4.41595 8.44417 4.42105H7.66678C6.78025 4.42096 5.9307 4.77181 5.30835 5.39504C4.686 6.01827 4.34284 6.86182 4.35568 7.73684V8.75053ZM16.4388 4.42105H15.6614C15.2639 4.42105 14.9416 4.10294 14.9416 3.71053C14.9416 3.31811 15.2639 3 15.6614 3H16.4388C19.0552 3.0465 21.1515 5.1537 21.1511 7.73684V8.75053C21.1511 9.14294 20.8288 9.46105 20.4313 9.46105C20.0338 9.46105 19.7115 9.14294 19.7115 8.75053V7.73684C19.7243 6.86836 19.3864 6.03055 18.7723 5.40843C18.1583 4.78631 17.3187 4.43103 16.4388 4.42105ZM22.1972 12.2368H1.80278C1.52755 12.2053 1.25843 12.3325 1.11075 12.5639C0.963082 12.7954 0.963082 13.0899 1.11075 13.3213C1.25843 13.5527 1.52755 13.6799 1.80278 13.6484H2.91608V16.3105C2.94239 18.9081 5.08315 21.0001 7.71477 21H8.49216C8.88969 21 9.21196 20.6819 9.21196 20.2895C9.21196 19.8971 8.88969 19.5789 8.49216 19.5789H7.66678C5.83811 19.5789 4.35568 18.1156 4.35568 16.3105V13.6484H7.01416V14.7095C7.01416 15.939 8.02393 16.9358 9.26954 16.9358H14.7592C15.3574 16.9358 15.9311 16.7012 16.354 16.2837C16.777 15.8662 17.0146 15.2999 17.0146 14.7095V13.6484H19.7115V16.3105C19.7116 18.1009 18.2524 19.5582 16.4388 19.5789H15.6614C15.2639 19.5789 14.9416 19.8971 14.9416 20.2895C14.9416 20.6819 15.2639 21 15.6614 21H16.4388C17.6979 21 18.9053 20.5056 19.7947 19.6259C20.6841 18.7462 21.1824 17.5534 21.1799 16.3105V13.6484H22.1972C22.4724 13.6799 22.7416 13.5527 22.8892 13.3213C23.0369 13.0899 23.0369 12.7954 22.8892 12.5639C22.7416 12.3325 22.4724 12.2053 22.1972 12.2368ZM7.01416 10.5126V9.29053C7.01416 8.06097 8.02393 7.06421 9.26954 7.06421H14.7497C15.3478 7.06421 15.9215 7.29877 16.3444 7.71628C16.7674 8.1338 17.005 8.70007 17.005 9.29053V10.5126C17.0078 10.5838 16.9803 10.6528 16.9293 10.7032C16.8783 10.7535 16.8084 10.7806 16.7363 10.7779H7.28289C7.21082 10.7806 7.14087 10.7535 7.08987 10.7032C7.03887 10.6528 7.01144 10.5838 7.01416 10.5126Z" fill="#200E32"/>
</g>
</g>
</svg>
