<svg width="24" height="24" viewBox="0 0 24 24" fill="none" xmlns="http://www.w3.org/2000/svg">
<g id="Iconly/Bold/Star">
<g id="Star">
<path id="Star_2" d="M17.9199 14.3203C17.6599 14.5703 17.5399 14.9393 17.6009 15.2903L18.4899 20.2103C18.5609 20.6303 18.3909 21.0493 18.0399 21.2903C17.6999 21.5403 17.2499 21.5703 16.8699 21.3703L12.4409 19.0603C12.2799 18.9803 12.1099 18.9293 11.9409 18.9293H11.6699C11.5699 18.9393 11.4809 18.9803 11.3999 19.0193L6.96989 21.3403C6.74989 21.4503 6.49989 21.4903 6.25989 21.4503C5.65989 21.3303 5.27089 20.7693 5.36989 20.1793L6.25989 15.2593C6.31989 14.9003 6.19989 14.5403 5.94089 14.2803L2.32989 10.7803C2.02989 10.4803 1.91989 10.0493 2.06089 9.65031C2.19089 9.25931 2.52989 8.96931 2.94989 8.90031L7.91989 8.17931C8.29989 8.13931 8.62989 7.91031 8.79989 7.57031L10.9899 3.08031C11.0399 2.98031 11.1099 2.88931 11.1909 2.81031L11.2799 2.74031C11.3199 2.68931 11.3799 2.65031 11.4409 2.61031L11.5499 2.57031L11.7199 2.50031H12.1409C12.5209 2.54031 12.8509 2.76931 13.0209 3.09931L15.2399 7.57031C15.3999 7.90031 15.7099 8.12031 16.0699 8.17931L21.0399 8.90031C21.4599 8.96031 21.8109 9.25031 21.9499 9.65031C22.0799 10.0493 21.9699 10.4903 21.6599 10.7803L17.9199 14.3203Z" fill="#200E32"/>
</g>
</g>
</svg>
