<svg width="24" height="24" viewBox="0 0 24 24" fill="none" xmlns="http://www.w3.org/2000/svg">
<g id="Iconly/Light/Activity">
<g id="Activity">
<path id="Path_33966" d="M7.24485 14.7815L10.238 10.8913L13.6522 13.5732L16.5812 9.79291" stroke="#200E32" stroke-width="1.5" stroke-linecap="round" stroke-linejoin="round"/>
<path id="Ellipse_741" fill-rule="evenodd" clip-rule="evenodd" d="M19.9954 6.12244C21.057 6.12244 21.9176 5.26184 21.9176 4.20024C21.9176 3.13864 21.057 2.27805 19.9954 2.27805C18.9338 2.27805 18.0732 3.13864 18.0732 4.20024C18.0732 5.26184 18.9338 6.12244 19.9954 6.12244Z" stroke="#200E32" stroke-width="1.5" stroke-linecap="round" stroke-linejoin="round"/>
<path id="Path" d="M14.9245 3.12015H7.65675C4.64531 3.12015 2.77803 5.25287 2.77803 8.26431V16.3467C2.77803 19.3581 4.60869 21.4817 7.65675 21.4817H16.2609C19.2723 21.4817 21.1396 19.3581 21.1396 16.3467V9.30779" stroke="#200E32" stroke-width="1.5" stroke-linecap="round" stroke-linejoin="round"/>
</g>
</g>
</svg>
