<svg width="25" height="15" viewBox="0 0 25 15" fill="none" xmlns="http://www.w3.org/2000/svg">
<g clip-path="url(#clip0)">
<path d="M23.8487 6.82235H2.38037L8.21585 1.15504C8.34685 1.02805 8.42055 0.855721 8.42072 0.67596C8.4209 0.496199 8.34754 0.323732 8.21678 0.196502C8.08602 0.0692721 7.90857 -0.00230236 7.72348 -0.00247162C7.53838 -0.00264089 7.3608 0.068608 7.22979 0.195599L0.204722 7.01911C0.188048 7.03458 0.17252 7.05117 0.158253 7.06876C0.151748 7.07598 0.146172 7.0841 0.139666 7.09222L0.117361 7.12201C0.110855 7.13103 0.10528 7.14096 0.098774 7.15089C0.0922684 7.16082 0.0876217 7.16894 0.0829749 7.17797C0.0783281 7.18699 0.0718227 7.19873 0.0671759 7.20956L0.053236 7.23844L0.0420826 7.26913C0.0420826 7.27996 0.0337193 7.28989 0.0300019 7.30072L0.0216365 7.33231C0.0216365 7.34314 0.0160601 7.35397 0.0142014 7.3648C0.0123427 7.37563 0.00955531 7.39007 0.00769658 7.40181C0.00583785 7.41354 0.00769658 7.42076 0.00769658 7.43069C0.00304971 7.4751 0.00304971 7.51986 0.00769658 7.56427C0.00769658 7.5742 0.00769658 7.58323 0.00769658 7.59315C0.00769658 7.60308 0.00769585 7.61752 0.0142014 7.63016C0.020707 7.6428 0.0142016 7.65182 0.0216365 7.66266L0.0300019 7.69424C0.0300019 7.70507 0.0374358 7.715 0.0420826 7.72583L0.053236 7.75652L0.0671759 7.7854C0.0718227 7.79624 0.0773987 7.80616 0.0829749 7.817C0.0885511 7.82783 0.0931978 7.83505 0.098774 7.84407C0.10435 7.8531 0.110855 7.86393 0.117361 7.87296L0.139666 7.90274C0.146172 7.91087 0.151748 7.91899 0.158253 7.92621C0.172758 7.9436 0.188273 7.96018 0.204722 7.97585L7.22979 14.7994C7.29454 14.8622 7.3714 14.9121 7.456 14.9462C7.54059 14.9802 7.63126 14.9977 7.72282 14.9977C7.81438 14.9977 7.90505 14.9802 7.98964 14.9462C8.07424 14.9121 8.1511 14.8622 8.21585 14.7994C8.28059 14.7365 8.33195 14.6618 8.36699 14.5797C8.40203 14.4975 8.42007 14.4095 8.42007 14.3205C8.42007 14.2316 8.40203 14.1436 8.36699 14.0614C8.33195 13.9793 8.28059 13.9046 8.21585 13.8417L2.38037 8.17442H23.8487C24.0336 8.17442 24.2108 8.1031 24.3416 7.97615C24.4723 7.8492 24.5457 7.67702 24.5457 7.49748C24.5457 7.31795 24.4723 7.14577 24.3416 7.01882C24.2108 6.89187 24.0336 6.82055 23.8487 6.82055V6.82235Z" fill="black"/>
</g>
<defs>
<clipPath id="clip0">
<rect width="24.5455" height="15" fill="white"/>
</clipPath>
</defs>
</svg>
